<svg width="40" height="40" viewBox="0 0 40 40" fill="none" xmlns="http://www.w3.org/2000/svg">
<path fill-rule="evenodd" clip-rule="evenodd" d="M40 34.2857C40 37.4375 37.4375 40 34.2857 40L5.71428 40C2.5625 40 0 37.4375 0 34.2857V14.2857L10 14.2857C12.3661 14.2857 14.2857 12.3661 14.2857 10L14.2857 2.49779e-07L34.2857 3.45147e-06C37.4375 3.45147e-06 40 2.5625 40 5.71429L40 34.2857ZM10 11.4286L0 11.4286L11.4286 0L11.4286 10C11.4286 10.7857 10.7857 11.4286 10 11.4286ZM20 12C20.6808 12 21.2308 12.55 21.2308 13.2308V18.7692H26.7692C27.45 18.7692 28 19.3192 28 20C28 20.6808 27.45 21.2308 26.7692 21.2308H21.2308V26.7692C21.2308 27.45 20.6808 28 20 28C19.3192 28 18.7692 27.45 18.7692 26.7692V21.2308H13.2308C12.55 21.2308 12 20.6808 12 20C12 19.3192 12.55 18.7692 13.2308 18.7692H18.7692V13.2308C18.7692 12.55 19.3192 12 20 12Z" fill="#F9F871"/>
</svg>
