<svg width="16" height="16" viewBox="0 0 16 16" fill="none" xmlns="http://www.w3.org/2000/svg">
<path d="M8 16C10.1217 16 12.1566 15.1571 13.6569 13.6569C15.1571 12.1566 16 10.1217 16 8C16 5.87827 15.1571 3.84344 13.6569 2.34315C12.1566 0.842855 10.1217 0 8 0C5.87827 0 3.84344 0.842855 2.34315 2.34315C0.842855 3.84344 0 5.87827 0 8C0 10.1217 0.842855 12.1566 2.34315 13.6569C3.84344 15.1571 5.87827 16 8 16ZM7.25 10.75V8.75H5.25C4.83437 8.75 4.5 8.41563 4.5 8C4.5 7.58437 4.83437 7.25 5.25 7.25H7.25V5.25C7.25 4.83437 7.58437 4.5 8 4.5C8.41563 4.5 8.75 4.83437 8.75 5.25V7.25H10.75C11.1656 7.25 11.5 7.58437 11.5 8C11.5 8.41563 11.1656 8.75 10.75 8.75H8.75V10.75C8.75 11.1656 8.41563 11.5 8 11.5C7.58437 11.5 7.25 11.1656 7.25 10.75Z" fill="#E2E7E9" fill-opacity="0.05"/>
</svg>
