<svg width="18" height="18" viewBox="0 0 18 18" fill="none" xmlns="http://www.w3.org/2000/svg">
<path d="M9 18C11.3869 18 13.6761 17.0518 15.364 15.364C17.0518 13.6761 18 11.3869 18 9C18 6.61305 17.0518 4.32387 15.364 2.63604C13.6761 0.948212 11.3869 0 9 0C6.61305 0 4.32387 0.948212 2.63604 2.63604C0.948212 4.32387 0 6.61305 0 9C0 11.3869 0.948212 13.6761 2.63604 15.364C4.32387 17.0518 6.61305 18 9 18ZM8.15625 12.0938V9.84375H5.90625C5.43867 9.84375 5.0625 9.46758 5.0625 9C5.0625 8.53242 5.43867 8.15625 5.90625 8.15625H8.15625V5.90625C8.15625 5.43867 8.53242 5.0625 9 5.0625C9.46758 5.0625 9.84375 5.43867 9.84375 5.90625V8.15625H12.0938C12.5613 8.15625 12.9375 8.53242 12.9375 9C12.9375 9.46758 12.5613 9.84375 12.0938 9.84375H9.84375V12.0938C9.84375 12.5613 9.46758 12.9375 9 12.9375C8.53242 12.9375 8.15625 12.5613 8.15625 12.0938Z" fill="#7ADDAB"/>
</svg>
