<svg width="16" height="16" viewBox="0 0 16 16" fill="none" xmlns="http://www.w3.org/2000/svg">
<path id="ArrowBtn" fill-rule="evenodd" clip-rule="evenodd" d="M0 8C0 3.58321 3.58321 0 8 0C12.4168 0 16 3.58321 16 8C16 12.4168 12.4168 16 8 16C3.58321 16 0 12.4168 0 8ZM8 1.23077C4.26294 1.23077 1.23077 4.26294 1.23077 8C1.23077 11.7371 4.26294 14.7692 8 14.7692C11.7371 14.7692 14.7692 11.7371 14.7692 8C14.7692 4.26294 11.7371 1.23077 8 1.23077ZM7.82117 4.48624C8.06242 4.24686 8.45206 4.24837 8.69145 4.48963L11.7445 7.56655C11.9826 7.80648 11.9826 8.19352 11.7445 8.43345L8.69145 11.5104C8.45206 11.7516 8.06242 11.7531 7.82117 11.5138C7.57991 11.2744 7.5784 10.8847 7.81778 10.6435L9.83016 8.61538H4.69231C4.35244 8.61538 4.07692 8.33987 4.07692 8C4.07692 7.66013 4.35244 7.38462 4.69231 7.38462H9.83016L7.81778 5.35652C7.5784 5.11527 7.57991 4.72563 7.82117 4.48624Z" fill="#FBEEE9" fill-opacity="0.75"/>
</svg>
