<svg width="18" height="18" viewBox="0 0 18 18" fill="none" xmlns="http://www.w3.org/2000/svg">
<path d="M18 3.85708C18 3.1751 17.7291 2.52105 17.2468 2.03881C16.7646 1.55657 16.1106 1.28566 15.4286 1.28566H14.7857V0.660879C14.7857 0.314941 14.5197 0.0180217 14.1738 0.000744902C14.0869 -0.00344299 14 0.0100599 13.9185 0.0404356C13.8369 0.0708113 13.7624 0.117427 13.6994 0.177459C13.6364 0.23749 13.5862 0.309687 13.552 0.389675C13.5177 0.469664 13.5 0.555777 13.5 0.642798V1.28566H4.5V0.660879C4.5 0.314941 4.23402 0.0180217 3.88808 0.000744902C3.80116 -0.00344299 3.71429 0.0100599 3.63275 0.0404356C3.5512 0.0708113 3.47667 0.117427 3.41367 0.177459C3.35067 0.23749 3.30051 0.309687 3.26624 0.389675C3.23197 0.469664 3.21429 0.555777 3.21429 0.642798V1.28566H2.57143C1.88944 1.28566 1.23539 1.55657 0.753154 2.03881C0.270918 2.52105 0 3.1751 0 3.85708V4.33923C0 4.38185 0.0169324 4.42273 0.0470722 4.45287C0.0772119 4.48301 0.11809 4.49994 0.160714 4.49994H17.8393C17.8819 4.49994 17.9228 4.48301 17.9529 4.45287C17.9831 4.42273 18 4.38185 18 4.33923V3.85708ZM0 15.4285C0 16.1105 0.270918 16.7646 0.753154 17.2468C1.23539 17.729 1.88944 17.9999 2.57143 17.9999H15.4286C16.1106 17.9999 16.7646 17.729 17.2468 17.2468C17.7291 16.7646 18 16.1105 18 15.4285V5.94637C18 5.90375 17.9831 5.86287 17.9529 5.83273C17.9228 5.80259 17.8819 5.78566 17.8393 5.78566H0.160714C0.11809 5.78566 0.0772119 5.80259 0.0470722 5.83273C0.0169324 5.86287 0 5.90375 0 5.94637V15.4285Z" fill="#E2E7E9"/>
</svg>
