<svg width="24" height="25" viewBox="0 0 24 25" fill="none" xmlns="http://www.w3.org/2000/svg">
<path d="M12 0.963837C5.38327 0.963837 0 6.21739 0 12.6747C0 19.132 5.38327 24.3855 12 24.3855C18.6167 24.3855 24 19.132 24 12.6747C24 6.21739 18.6167 0.963837 12 0.963837ZM18.2452 8.74986L10.4913 17.7582C10.4063 17.8571 10.3005 17.9369 10.181 17.9924C10.0616 18.0479 9.9313 18.0776 9.79904 18.0797H9.78346C9.65408 18.0796 9.52615 18.0531 9.40798 18.0016C9.2898 17.9502 9.18402 17.8752 9.0975 17.7813L5.77442 14.1779C5.69003 14.0906 5.62438 13.9877 5.58133 13.8752C5.53828 13.7627 5.51871 13.643 5.52375 13.523C5.5288 13.4031 5.55836 13.2853 5.61071 13.1767C5.66306 13.068 5.73713 12.9707 5.82858 12.8904C5.92003 12.81 6.027 12.7484 6.14321 12.709C6.25943 12.6696 6.38254 12.6533 6.50531 12.661C6.62808 12.6687 6.74803 12.7003 6.85811 12.7539C6.9682 12.8075 7.0662 12.882 7.14635 12.9731L9.75923 15.8062L16.8317 7.59116C16.9904 7.41216 17.2148 7.30128 17.4566 7.28248C17.6983 7.26369 17.9379 7.33848 18.1236 7.4907C18.3093 7.64292 18.4261 7.86034 18.4489 8.09595C18.4716 8.33157 18.3985 8.56647 18.2452 8.74986Z" fill="#E2E7E9" fill-opacity="0.1"/>
</svg>
