<svg width="24" height="24" viewBox="0 0 24 24" fill="none" xmlns="http://www.w3.org/2000/svg">
<path fill-rule="evenodd" clip-rule="evenodd" d="M0 12C0 5.37481 5.37481 0 12 0C18.6252 0 24 5.37481 24 12C24 18.6252 18.6252 24 12 24C5.37481 24 0 18.6252 0 12ZM12 1.84616C6.39441 1.84616 1.84616 6.39441 1.84616 12C1.84616 17.6056 6.39441 22.1539 12 22.1539C17.6056 22.1539 22.1539 17.6056 22.1539 12C22.1539 6.39441 17.6056 1.84616 12 1.84616ZM7.65497 7.65497C8.01547 7.29449 8.59992 7.29449 8.9604 7.65497L12 10.6946L15.0396 7.65497C15.4001 7.29449 15.9845 7.29449 16.3451 7.65497C16.7055 8.01547 16.7055 8.59992 16.3451 8.9604L13.3054 12L16.3451 15.0396C16.7055 15.4001 16.7055 15.9845 16.3451 16.3451C15.9845 16.7055 15.4001 16.7055 15.0396 16.3451L12 13.3054L8.9604 16.3451C8.59992 16.7055 8.01547 16.7055 7.65497 16.3451C7.29449 15.9845 7.29449 15.4001 7.65497 15.0396L10.6946 12L7.65497 8.9604C7.29449 8.59992 7.29449 8.01547 7.65497 7.65497Z" fill="#E2E7E9" fill-opacity="0.25"/>
</svg>
