<svg width="32" height="32" viewBox="0 0 32 32" fill="none" xmlns="http://www.w3.org/2000/svg">
<path fill-rule="evenodd" clip-rule="evenodd" d="M0 16C0 7.16642 7.16642 0 16 0C24.8336 0 32 7.16642 32 16C32 24.8336 24.8336 32 16 32C7.16642 32 0 24.8336 0 16ZM16 2.46154C8.52589 2.46154 2.46154 8.52589 2.46154 16C2.46154 23.4741 8.52589 29.5385 16 29.5385C23.4741 29.5385 29.5385 23.4741 29.5385 16C29.5385 8.52589 23.4741 2.46154 16 2.46154ZM10.2066 10.2066C10.6873 9.72599 11.4666 9.72599 11.9472 10.2066L16 14.2594L20.0528 10.2066C20.5334 9.72599 21.3127 9.72599 21.7934 10.2066C22.274 10.6873 22.274 11.4666 21.7934 11.9472L17.7406 16L21.7934 20.0528C22.274 20.5334 22.274 21.3127 21.7934 21.7934C21.3127 22.274 20.5334 22.274 20.0528 21.7934L16 17.7406L11.9472 21.7934C11.4666 22.274 10.6873 22.274 10.2066 21.7934C9.72599 21.3127 9.72599 20.5334 10.2066 20.0528L14.2594 16L10.2066 11.9472C9.72599 11.4666 9.72599 10.6873 10.2066 10.2066Z" fill="#FBEEE9" fill-opacity="0.25"/>
</svg>
