<svg width="18" height="18" viewBox="0 0 18 18" fill="none" xmlns="http://www.w3.org/2000/svg">
<path fill-rule="evenodd" clip-rule="evenodd" d="M0 9C0 4.03111 4.03111 0 9 0C13.9689 0 18 4.03111 18 9C18 13.9689 13.9689 18 9 18C4.03111 18 0 13.9689 0 9ZM9 1.38462C4.79581 1.38462 1.38462 4.79581 1.38462 9C1.38462 13.2042 4.79581 16.6154 9 16.6154C13.2042 16.6154 16.6154 13.2042 16.6154 9C16.6154 4.79581 13.2042 1.38462 9 1.38462ZM5.74123 5.74123C6.0116 5.47087 6.44994 5.47087 6.7203 5.74123L9 8.02093L11.2797 5.74123C11.5501 5.47087 11.9884 5.47087 12.2588 5.74123C12.5291 6.0116 12.5291 6.44994 12.2588 6.7203L9.97907 9L12.2588 11.2797C12.5291 11.5501 12.5291 11.9884 12.2588 12.2588C11.9884 12.5291 11.5501 12.5291 11.2797 12.2588L9 9.97907L6.7203 12.2588C6.44994 12.5291 6.0116 12.5291 5.74123 12.2588C5.47087 11.9884 5.47087 11.5501 5.74123 11.2797L8.02093 9L5.74123 6.7203C5.47087 6.44994 5.47087 6.0116 5.74123 5.74123Z" fill="#E2E7E9" fill-opacity="0.5"/>
</svg>
