<svg width="18" height="18" viewBox="0 0 18 18" fill="none" xmlns="http://www.w3.org/2000/svg">
<path fill-rule="evenodd" clip-rule="evenodd" d="M0 9C0 4.03111 4.03111 0 9 0C13.9689 0 18 4.03111 18 9C18 13.9689 13.9689 18 9 18C4.03111 18 0 13.9689 0 9ZM9 1.38462C4.79581 1.38462 1.38462 4.79581 1.38462 9C1.38462 13.2042 4.79581 16.6154 9 16.6154C13.2042 16.6154 16.6154 13.2042 16.6154 9C16.6154 4.79581 13.2042 1.38462 9 1.38462Z" fill="#F97171"/>
<path fill-rule="evenodd" clip-rule="evenodd" d="M8.99088 4.15604C9.11869 4.15483 9.24541 4.17967 9.36331 4.22906C9.48127 4.27848 9.58791 4.35144 9.67672 4.44347C9.76553 4.5355 9.83464 4.64467 9.87983 4.76432C9.92501 4.88395 9.94533 5.01155 9.93953 5.13932L9.69154 10.4171C9.67419 10.7864 9.36974 11.0769 9.00003 11.0769C8.63032 11.0769 8.32584 10.7865 8.30846 10.4172L8.06004 5.13932C8.05431 5.01307 8.07408 4.88697 8.11816 4.76853C8.16224 4.6501 8.22974 4.54176 8.31662 4.44998C8.4035 4.35821 8.50798 4.28488 8.62383 4.23438C8.73961 4.1839 8.86437 4.15726 8.99066 4.15604" fill="#F97171"/>
<path d="M9 13.8423C8.82884 13.8423 8.66153 13.7915 8.51922 13.6964C8.37691 13.6013 8.26599 13.4662 8.20049 13.308C8.13499 13.1499 8.11785 12.9759 8.15124 12.808C8.18463 12.6402 8.26705 12.486 8.38808 12.365C8.50911 12.2439 8.6633 12.1615 8.83117 12.1281C8.99904 12.0947 9.17304 12.1119 9.33117 12.1774C9.4893 12.2429 9.62445 12.3538 9.71954 12.4961C9.81463 12.6384 9.86538 12.8057 9.86538 12.9769C9.86538 13.2064 9.77421 13.4265 9.61192 13.5888C9.44963 13.7511 9.22951 13.8423 9 13.8423Z" fill="#F97171"/>
</svg>
