<svg width="32" height="27" viewBox="0 0 32 27" fill="none" xmlns="http://www.w3.org/2000/svg">
<path d="M0 22.0793C0 23.1871 0.421427 24.2496 1.17157 25.033C1.92172 25.8163 2.93913 26.2564 4 26.2564H28C29.0609 26.2564 30.0783 25.8163 30.8284 25.033C31.5786 24.2496 32 23.1871 32 22.0793V10.5921H0V22.0793ZM4.71429 16.4103C4.71429 15.8168 4.94005 15.2476 5.34191 14.8279C5.74378 14.4083 6.28882 14.1725 6.85714 14.1725H10.2857C10.854 14.1725 11.3991 14.4083 11.8009 14.8279C12.2028 15.2476 12.4286 15.8168 12.4286 16.4103V17.9021C12.4286 18.4956 12.2028 19.0648 11.8009 19.4844C11.3991 19.9041 10.854 20.1399 10.2857 20.1399H6.85714C6.28882 20.1399 5.74378 19.9041 5.34191 19.4844C4.94005 19.0648 4.71429 18.4956 4.71429 17.9021V16.4103ZM28 0H4C2.93913 0 1.92172 0.440092 1.17157 1.22346C0.421427 2.00683 0 3.06931 0 4.17716V6.11655H32V4.17716C32 3.06931 31.5786 2.00683 30.8284 1.22346C30.0783 0.440092 29.0609 0 28 0Z" fill="url(#paint0_linear_16_1044)"/>
<defs>
<linearGradient id="paint0_linear_16_1044" x1="0" y1="13.1282" x2="32" y2="13.1282" gradientUnits="userSpaceOnUse">
<stop stop-color="#63C7BC"/>
<stop offset="1" stop-color="#B1EF8E"/>
</linearGradient>
</defs>
</svg>
