<svg width="20" height="16" viewBox="0 0 20 16" fill="none" xmlns="http://www.w3.org/2000/svg">
<path fill-rule="evenodd" clip-rule="evenodd" d="M3.66674 1.33333C3.40152 1.33333 3.14717 1.43869 2.95963 1.62623C2.7721 1.81376 2.66674 2.06812 2.66674 2.33333V4.66667H17.3334V3.66667C17.3334 3.40145 17.228 3.1471 17.0405 2.95956C16.853 2.77202 16.5986 2.66667 16.3334 2.66667H9.83799C9.3773 2.66665 8.92691 2.53027 8.54361 2.2747C8.54359 2.27469 8.54357 2.27468 8.54356 2.27467L7.38356 1.50133C7.21928 1.3918 7.02627 1.33334 6.82882 1.33333C6.82882 1.33333 6.82883 1.33333 6.82882 1.33333H3.66674ZM2.00007 6C1.90805 6 1.81698 6.01904 1.73267 6.05595C1.64837 6.09285 1.57261 6.14681 1.51019 6.21442C1.44776 6.28204 1.4 6.36184 1.36993 6.44882C1.3404 6.53423 1.32855 6.62474 1.33508 6.71485L2.01023 13.6016C2.01235 13.6232 2.01341 13.6449 2.01341 13.6667C2.01341 13.9316 2.11852 14.1857 2.30568 14.3732C2.49269 14.5605 2.74635 14.666 3.01104 14.6667C3.01125 14.6667 3.01145 14.6667 3.01166 14.6667H16.9885C16.9887 14.6667 16.9889 14.6667 16.9891 14.6667C17.2538 14.666 17.5075 14.5605 17.6945 14.3732C17.8816 14.1857 17.9867 13.9316 17.9867 13.6667C17.9867 13.6449 17.9878 13.6232 17.9899 13.6016L18.6651 6.71485C18.6716 6.62492 18.6598 6.53458 18.6304 6.44931C18.6004 6.36247 18.5529 6.28277 18.4907 6.21518C18.4285 6.1476 18.353 6.0936 18.2689 6.05657C18.1851 6.01965 18.0946 6.0004 18.003 6H2.00007ZM18.6667 4.78102V3.66667C18.6667 3.04783 18.4209 2.45434 17.9833 2.01675C17.5457 1.57917 16.9522 1.33333 16.3334 1.33333H9.83801C9.83801 1.33333 9.838 1.33333 9.83801 1.33333C9.64057 1.33332 9.44753 1.27487 9.28326 1.16533L8.12326 0.392C8.12324 0.391989 8.12322 0.391978 8.12321 0.391967C7.73991 0.136397 7.28953 1.18017e-05 6.82884 0H3.66674C3.0479 0 2.45441 0.245833 2.01682 0.683417C1.57924 1.121 1.33341 1.71449 1.33341 2.33333V4.78102C1.28771 4.79718 1.24255 4.81501 1.19801 4.8345C0.945099 4.94521 0.717844 5.10708 0.530556 5.30993C0.34327 5.51277 0.200008 5.7522 0.109792 6.01313C0.0195764 6.27406 -0.0156401 6.55084 0.00636038 6.82604C0.00667827 6.83002 0.00703185 6.83399 0.00742106 6.83796L0.680341 13.702C0.689495 14.3073 0.933671 14.886 1.36205 15.3151C1.79875 15.7526 2.39119 15.9989 3.00932 16L3.01049 16H16.9897L16.9908 16C17.609 15.9989 18.2014 15.7526 18.6381 15.3151C19.0665 14.886 19.3106 14.3074 19.3198 13.702L19.9927 6.83796C19.9931 6.83399 19.9935 6.83002 19.9938 6.82604C20.0157 6.55136 19.9807 6.27511 19.8909 6.0146C19.801 5.7541 19.6583 5.51498 19.4717 5.31222C19.2851 5.10947 19.0586 4.94747 18.8064 4.83638C18.7605 4.81615 18.7139 4.79769 18.6667 4.78102Z" fill="#F9F871"/>
</svg>
