<svg width="18" height="14" viewBox="0 0 18 14" fill="none" xmlns="http://www.w3.org/2000/svg">
<path fill-rule="evenodd" clip-rule="evenodd" d="M3.2084 1.16667C2.97633 1.16667 2.75377 1.25885 2.58968 1.42295C2.42559 1.58704 2.3334 1.8096 2.3334 2.04167V4.08333H15.1667V3.20833C15.1667 2.97627 15.0745 2.75371 14.9104 2.58961C14.7464 2.42552 14.5238 2.33333 14.2917 2.33333H8.60824C8.20514 2.33332 7.81104 2.21399 7.47566 1.99036C7.47564 1.99035 7.47563 1.99034 7.47561 1.99033L6.46061 1.31367C6.31687 1.21782 6.14798 1.16667 5.97522 1.16667C5.97522 1.16667 5.97523 1.16667 5.97522 1.16667H3.2084ZM1.75006 5.25C1.66954 5.25 1.58985 5.26666 1.51609 5.29895C1.44232 5.33124 1.37604 5.37846 1.32141 5.43762C1.26679 5.49678 1.225 5.56661 1.19869 5.64272C1.17285 5.71745 1.16248 5.79665 1.16819 5.87549L1.75895 11.9014C1.7608 11.9203 1.76173 11.9393 1.76173 11.9583C1.76173 12.1901 1.85371 12.4125 2.01747 12.5765C2.18111 12.7404 2.40306 12.8328 2.63466 12.8333C2.63484 12.8333 2.63502 12.8333 2.6352 12.8333H14.8649C14.8651 12.8333 14.8653 12.8333 14.8655 12.8333C15.0971 12.8328 15.319 12.7404 15.4827 12.5765C15.6464 12.4125 15.7384 12.1901 15.7384 11.9583C15.7384 11.9393 15.7393 11.9203 15.7412 11.9014L16.3319 5.87549C16.3376 5.7968 16.3273 5.71776 16.3016 5.64314C16.2754 5.56716 16.2338 5.49742 16.1793 5.43828C16.1249 5.37915 16.0588 5.3319 15.9853 5.2995C15.912 5.2672 15.8328 5.25035 15.7527 5.25H1.75006ZM16.3334 4.18339V3.20833C16.3334 2.66685 16.1183 2.14754 15.7354 1.76466C15.3525 1.38177 14.8332 1.16667 14.2917 1.16667H8.60826C8.60826 1.16667 8.60825 1.16667 8.60826 1.16667C8.43549 1.16666 8.26659 1.11551 8.12285 1.01967L7.10785 0.343C7.10784 0.34299 7.10782 0.34298 7.10781 0.342971C6.77242 0.119348 6.37834 1.03265e-05 5.97524 0H3.2084C2.66691 0 2.14761 0.215103 1.76472 0.59799C1.38183 0.980877 1.16673 1.50018 1.16673 2.04167V4.18339C1.12675 4.19753 1.08723 4.21313 1.04826 4.23019C0.826962 4.32706 0.628113 4.4687 0.464237 4.64619C0.300361 4.82368 0.175007 5.03317 0.0960683 5.26149C0.0171293 5.4898 -0.013685 5.73198 0.00556533 5.97279C0.00584349 5.97627 0.00615287 5.97974 0.00649343 5.98322L0.595298 11.9892C0.603308 12.5189 0.816962 13.0253 1.19179 13.4007C1.57391 13.7835 2.09229 13.9991 2.63316 14L2.63418 14H14.8659L14.867 14C15.4078 13.9991 15.9262 13.7835 16.3083 13.4007C16.6832 13.0253 16.8968 12.5189 16.9048 11.9892L17.4936 5.98322C17.494 5.97974 17.4943 5.97627 17.4946 5.97279C17.5138 5.73244 17.4831 5.49072 17.4045 5.26278C17.3259 5.03484 17.201 4.8256 17.0377 4.6482C16.8745 4.47079 16.6763 4.32904 16.4556 4.23184C16.4154 4.21413 16.3747 4.19798 16.3334 4.18339Z" fill="#E2E7E9" fill-opacity="0.25"/>
</svg>
