<svg width="18" height="19" viewBox="0 0 18 19" fill="none" xmlns="http://www.w3.org/2000/svg">
<path d="M17.8939 7.76027L17.8014 7.36751H9.26457V10.9806H14.3652C13.8356 13.4953 11.3783 14.819 9.37106 14.819C7.91058 14.819 6.37106 14.2046 5.35208 13.2172C4.81447 12.6879 4.38653 12.0578 4.09277 11.3629C3.79902 10.668 3.6452 9.92194 3.64014 9.16751C3.64014 7.6456 4.3241 6.12328 5.31932 5.12191C6.31454 4.12055 7.81761 3.56027 9.31208 3.56027C11.0236 3.56027 12.2502 4.46908 12.7089 4.88355L15.2765 2.32956C14.5233 1.66771 12.4542 0 9.22935 0C6.7413 0 4.35563 0.953038 2.61174 2.69119C0.890785 4.40273 0 6.87768 0 9.17406C0 11.4704 0.842867 13.8217 2.51058 15.5468C4.29256 17.3865 6.81625 18.3481 9.41488 18.3481C11.7792 18.3481 14.0203 17.4217 15.6176 15.7409C17.1878 14.0863 18 11.7969 18 9.39686C18 8.38649 17.8984 7.78648 17.8939 7.76027Z" fill="#E2E7E9" fill-opacity="0.75"/>
</svg>
