<svg width="32" height="32" viewBox="0 0 32 32" fill="none" xmlns="http://www.w3.org/2000/svg">
<path d="M29.7143 16C30.4802 15.9999 31.2448 15.9359 32 15.8086C31.9503 11.6313 30.2688 7.63914 27.3148 4.68516C24.3609 1.73118 20.3687 0.049686 16.1914 0C16.0641 0.755246 16.0001 1.51981 16 2.28571C16 9.84786 22.1521 16 29.7143 16ZM15.8107 32C15.8779 31.595 15.9286 31.1857 15.96 30.7729C15.9864 30.4243 16 30.0686 16 29.7164C16 22.1543 9.84786 16.0021 2.28571 16.0021C1.51981 16.0022 0.755246 16.0662 0 16.1936C0.0502522 20.3708 1.73229 24.3628 4.68667 27.3163C7.64105 30.2699 11.6334 31.9509 15.8107 32Z" fill="#E2E7E9" fill-opacity="0.5"/>
<path d="M18.4007 13.5993C16.9103 12.117 15.7287 10.3539 14.9243 8.41193C14.1198 6.46995 13.7086 4.3877 13.7143 2.28571C13.7143 1.56905 13.762 0.853181 13.8571 0.142857C10.3854 0.613 7.16376 2.20915 4.68646 4.68646C2.20915 7.16376 0.613 10.3854 0.142857 13.8571C0.853181 13.762 1.56905 13.7143 2.28571 13.7143C4.3877 13.7086 6.46995 14.1198 8.41193 14.9243C10.3539 15.7287 12.117 16.9103 13.5993 18.4007C15.0897 19.883 16.2713 21.6461 17.0757 23.5881C17.8802 25.5301 18.2914 27.6123 18.2857 29.7143C18.2857 30.1243 18.27 30.5379 18.2393 30.9443C18.2155 31.25 18.1831 31.5545 18.1421 31.8579C21.614 31.3876 24.8358 29.7913 27.3132 27.3139C29.7906 24.8365 31.3869 21.6147 31.8571 18.1429C31.1468 18.238 30.431 18.2857 29.7143 18.2857C27.6123 18.2914 25.5301 17.8802 23.5881 17.0757C21.6461 16.2713 19.883 15.0897 18.4007 13.5993Z" fill="#E2E7E9" fill-opacity="0.5"/>
</svg>
