<svg width="24" height="24" viewBox="0 0 24 24" fill="none" xmlns="http://www.w3.org/2000/svg">
<path d="M10.4143 9.62679C10.1023 9.83538 9.83441 10.1034 9.62598 10.4155C9.41755 10.7276 9.27263 11.0777 9.1995 11.4458C9.05182 12.1893 9.20552 12.9609 9.62679 13.5911C10.0481 14.2212 10.7024 14.6582 11.4458 14.8059C12.1893 14.9535 12.9609 14.7998 13.5911 14.3786C14.2212 13.9573 14.6582 13.303 14.8059 12.5595C14.9535 11.8161 14.7998 11.0444 14.3786 10.4143C13.9573 9.78416 13.303 9.34719 12.5595 9.1995C11.8161 9.05182 11.0444 9.20552 10.4143 9.62679ZM18.0375 5.9625C17.7589 5.68393 17.4214 5.46429 17.0518 5.31964C16.0821 4.93929 13.9661 4.95536 12.6 4.97143C12.3804 4.97143 12.1768 4.97679 12 4.97679C11.8232 4.97679 11.6143 4.97679 11.3893 4.97143C10.0232 4.95536 7.91786 4.93393 6.94821 5.31964C6.57857 5.46429 6.24643 5.68393 5.9625 5.9625C5.67857 6.24107 5.46429 6.57857 5.31964 6.94821C4.93929 7.91786 4.96071 10.0393 4.97143 11.4054C4.97143 11.625 4.97679 11.8286 4.97679 12C4.97679 12.1714 4.97679 12.375 4.97143 12.5946C4.96071 13.9607 4.93929 16.0821 5.31964 17.0518C5.46429 17.4214 5.68393 17.7536 5.9625 18.0375C6.24107 18.3214 6.57857 18.5357 6.94821 18.6804C7.91786 19.0607 10.0339 19.0446 11.4 19.0286C11.6196 19.0286 11.8232 19.0232 12 19.0232C12.1768 19.0232 12.3857 19.0232 12.6107 19.0286C13.9768 19.0446 16.0821 19.0661 17.0518 18.6804C17.4214 18.5357 17.7536 18.3161 18.0375 18.0375C18.3214 17.7589 18.5357 17.4214 18.6804 17.0518C19.0661 16.0875 19.0446 13.9768 19.0286 12.6054C19.0286 12.3804 19.0232 12.1714 19.0232 11.9946C19.0232 11.8179 19.0232 11.6143 19.0286 11.3839C19.0446 10.0179 19.0661 7.90714 18.6804 6.9375C18.5357 6.56786 18.3161 6.23571 18.0375 5.95179V5.9625ZM14.4429 8.34643C15.4118 8.99431 16.0838 10.0006 16.3108 11.1439C16.5379 12.2872 16.3015 13.4739 15.6536 14.4429C15.3328 14.9227 14.9206 15.3346 14.4406 15.6551C13.9606 15.9756 13.4222 16.1984 12.8561 16.3108C11.7128 16.5379 10.5261 16.3015 9.55714 15.6536C8.58816 15.0064 7.91594 14.0008 7.68839 12.858C7.46083 11.7152 7.69657 10.5288 8.34375 9.55982C8.99093 8.59083 9.99652 7.91862 11.1393 7.69107C12.2821 7.46351 13.4685 7.69925 14.4375 8.34643H14.4429ZM16.0071 8.27679C15.8411 8.16429 15.7071 8.00357 15.6268 7.81607C15.5464 7.62857 15.5304 7.425 15.5679 7.22143C15.6054 7.01786 15.7071 6.84107 15.8464 6.69643C15.9857 6.55179 16.1732 6.45536 16.3714 6.41786C16.5696 6.38036 16.7786 6.39643 16.9661 6.47679C17.1536 6.55714 17.3143 6.68571 17.4268 6.85179C17.5393 7.01786 17.5982 7.21607 17.5982 7.41964C17.5982 7.55357 17.5714 7.6875 17.5232 7.81071C17.475 7.93393 17.3946 8.04643 17.3036 8.14286C17.2125 8.23929 17.0946 8.31429 16.9714 8.36786C16.8482 8.42143 16.7143 8.44821 16.5804 8.44821C16.3768 8.44821 16.1786 8.38929 16.0125 8.27679H16.0071ZM24 3.42857C24 1.5375 22.4625 0 20.5714 0H3.42857C1.5375 0 0 1.5375 0 3.42857V20.5714C0 22.4625 1.5375 24 3.42857 24H20.5714C22.4625 24 24 22.4625 24 20.5714V3.42857ZM19.125 19.125C18.1232 20.1268 16.9071 20.4429 15.5357 20.5125C14.1214 20.5929 9.87857 20.5929 8.46429 20.5125C7.09286 20.4429 5.87679 20.1268 4.875 19.125C3.87321 18.1232 3.55714 16.9071 3.49286 15.5357C3.4125 14.1214 3.4125 9.87857 3.49286 8.46429C3.5625 7.09286 3.87321 5.87679 4.875 4.875C5.87679 3.87321 7.09821 3.55714 8.46429 3.49286C9.87857 3.4125 14.1214 3.4125 15.5357 3.49286C16.9071 3.5625 18.1232 3.87321 19.125 4.875C20.1268 5.87679 20.4429 7.09286 20.5071 8.46429C20.5875 9.87321 20.5875 14.1107 20.5071 15.5304C20.4375 16.9018 20.1268 18.1179 19.125 19.1196V19.125Z" fill="url(#paint0_linear_15_429)"/>
<defs>
<linearGradient id="paint0_linear_15_429" x1="0" y1="12" x2="24" y2="12" gradientUnits="userSpaceOnUse">
<stop stop-color="#63C7BC"/>
<stop offset="1" stop-color="#B1EF8E"/>
</linearGradient>
</defs>
</svg>
