<svg width="24" height="24" viewBox="0 0 24 24" fill="none" xmlns="http://www.w3.org/2000/svg">
<path d="M20.5714 24C22.4625 24 24 22.4625 24 20.5714L24 3.42857C24 1.5375 22.4625 -3.72831e-07 20.5714 -5.38154e-07L8.57143 -1.58723e-06L8.57143 6C8.57143 7.41964 7.41964 8.57143 6 8.57143L1.11039e-06 8.57143L6.13167e-08 20.5714C-1.04006e-07 22.4625 1.5375 24 3.42857 24L20.5714 24ZM1.26026e-06 6.85714L6 6.85714C6.47143 6.85714 6.85714 6.47143 6.85714 6L6.85714 -1.73709e-06L1.26026e-06 6.85714Z" fill="#E2E7E9" fill-opacity="0.25"/>
</svg>
