<svg width="26" height="22" viewBox="0 0 26 22" fill="none" xmlns="http://www.w3.org/2000/svg">
<path d="M7.00013 11C7.00013 10.7348 7.10548 10.4804 7.29302 10.2929C7.48056 10.1054 7.73492 10 8.00014 10H17.0003V3.5C17.0003 1.5 14.8884 0 13.0002 0H3.50006C2.57209 0.000992641 1.68242 0.37006 1.02624 1.02622C0.370067 1.68238 0.000992659 2.57205 0 3.5V18.5C0.000992659 19.428 0.370067 20.3176 1.02624 20.9738C1.68242 21.6299 2.57209 21.999 3.50006 22H13.5002C14.4282 21.999 15.3179 21.6299 15.9741 20.9738C16.6302 20.3176 16.9993 19.428 17.0003 18.5V12H8.00014C7.73492 12 7.48056 11.8946 7.29302 11.7071C7.10548 11.5196 7.00013 11.2652 7.00013 11ZM25.7073 10.2931L20.7072 5.29313C20.5182 5.11351 20.2664 5.01485 20.0057 5.01819C19.7449 5.02152 19.4957 5.1266 19.3113 5.311C19.1269 5.4954 19.0219 5.74454 19.0185 6.0053C19.0152 6.26606 19.1138 6.51781 19.2935 6.70687L22.586 10H17.0003V12H22.586L19.2935 15.2931C19.1967 15.3851 19.1193 15.4954 19.0659 15.6178C19.0124 15.7401 18.984 15.8718 18.9823 16.0053C18.9806 16.1388 19.0056 16.2712 19.0559 16.3949C19.1062 16.5185 19.1808 16.6308 19.2751 16.7252C19.3695 16.8196 19.4818 16.8941 19.6055 16.9444C19.7291 16.9947 19.8616 17.0197 19.9951 17.018C20.1285 17.0163 20.2603 16.9879 20.3826 16.9345C20.5049 16.881 20.6153 16.8036 20.7072 16.7069L25.7073 11.7069C25.8947 11.5194 26 11.2651 26 11C26 10.7349 25.8947 10.4806 25.7073 10.2931Z" fill="#FBEEE9" fill-opacity="0.5"/>
</svg>
