<svg width="32" height="28" viewBox="0 0 32 28" fill="none" xmlns="http://www.w3.org/2000/svg">
<path d="M8.61554 13.5385C8.61554 13.212 8.74521 12.899 8.97603 12.6682C9.20685 12.4374 9.5199 12.3077 9.84633 12.3077H20.9235V4.30769C20.9235 1.84615 18.3242 0 16.0003 0H4.30777C3.16565 0.00122171 2.07066 0.455459 1.26307 1.26304C0.455467 2.07063 0.00122173 3.1656 0 4.30769V22.7692C0.00122173 23.9113 0.455467 25.0063 1.26307 25.8139C2.07066 26.6215 3.16565 27.0757 4.30777 27.0769H16.6157C17.7578 27.0757 18.8528 26.6215 19.6604 25.8139C20.468 25.0063 20.9222 23.9113 20.9235 22.7692V14.7692H9.84633C9.5199 14.7692 9.20685 14.6396 8.97603 14.4087C8.74521 14.1779 8.61554 13.8649 8.61554 13.5385ZM31.6398 12.6685L25.4858 6.51462C25.2531 6.29355 24.9433 6.17212 24.6223 6.17623C24.3014 6.18034 23.9948 6.30966 23.7678 6.53661C23.5408 6.76357 23.4115 7.0702 23.4074 7.39114C23.4033 7.71208 23.5247 8.02192 23.7458 8.25462L27.7982 12.3077H20.9235V14.7692H27.7982L23.7458 18.8223C23.6267 18.9355 23.5315 19.0713 23.4657 19.2218C23.3999 19.3724 23.365 19.5346 23.3629 19.6988C23.3608 19.8631 23.3916 20.0261 23.4534 20.1783C23.5153 20.3305 23.6071 20.4687 23.7232 20.5849C23.8394 20.701 23.9777 20.7928 24.1298 20.8547C24.282 20.9166 24.445 20.9474 24.6093 20.9453C24.7736 20.9432 24.9358 20.9082 25.0863 20.8424C25.2368 20.7766 25.3727 20.6814 25.4858 20.5623L31.6398 14.4085C31.8704 14.1777 32 13.8647 32 13.5385C32 13.2122 31.8704 12.8993 31.6398 12.6685Z" fill="#FBEEE9" fill-opacity="0.5"/>
</svg>
