<svg width="18" height="18" viewBox="0 0 18 18" fill="none" xmlns="http://www.w3.org/2000/svg">
<path fill-rule="evenodd" clip-rule="evenodd" d="M0 9C0 4.03111 4.03111 0 9 0C13.9689 0 18 4.03111 18 9C18 13.9689 13.9689 18 9 18C4.03111 18 0 13.9689 0 9ZM9 1.38462C4.79581 1.38462 1.38462 4.79581 1.38462 9C1.38462 13.2042 4.79581 16.6154 9 16.6154C13.2042 16.6154 16.6154 13.2042 16.6154 9C16.6154 4.79581 13.2042 1.38462 9 1.38462ZM8.79882 5.04703C9.07023 4.77772 9.50857 4.77942 9.77788 5.05083L13.2126 8.51237C13.4804 8.78229 13.4804 9.21771 13.2126 9.48763L9.77788 12.9492C9.50857 13.2206 9.07023 13.2223 8.79882 12.953C8.5274 12.6837 8.5257 12.2453 8.79501 11.9739L11.0589 9.69231H5.27885C4.8965 9.69231 4.58654 9.38235 4.58654 9C4.58654 8.61765 4.8965 8.30769 5.27885 8.30769H11.0589L8.79501 6.02609C8.5257 5.75468 8.5274 5.31633 8.79882 5.04703Z" fill="#E2E7E9" fill-opacity="0.5"/>
</svg>
