<svg width="24" height="24" viewBox="0 0 24 24" fill="none" xmlns="http://www.w3.org/2000/svg">
<path fill-rule="evenodd" clip-rule="evenodd" d="M0 12C0 5.37481 5.37481 0 12 0C18.6252 0 24 5.37481 24 12C24 18.6252 18.6252 24 12 24C5.37481 24 0 18.6252 0 12ZM12 1.84615C6.39442 1.84615 1.84615 6.39442 1.84615 12C1.84615 17.6056 6.39442 22.1538 12 22.1538C17.6056 22.1538 22.1538 17.6056 22.1538 12C22.1538 6.39442 17.6056 1.84615 12 1.84615ZM11.7318 6.72937C12.0936 6.37029 12.6781 6.37256 13.0372 6.73445L17.6168 11.3498C17.9739 11.7097 17.9739 12.2903 17.6168 12.6502L13.0372 17.2656C12.6781 17.6274 12.0936 17.6297 11.7318 17.2706C11.3699 16.9116 11.3676 16.3271 11.7267 15.9652L14.7452 12.9231H7.03846C6.52866 12.9231 6.11538 12.5098 6.11538 12C6.11538 11.4902 6.52866 11.0769 7.03846 11.0769H14.7452L11.7267 8.03479C11.3676 7.6729 11.3699 7.08845 11.7318 6.72937Z" fill="#E2E7E9" fill-opacity="0.25"/>
</svg>
