<svg width="20" height="20" viewBox="0 0 20 20" fill="none" xmlns="http://www.w3.org/2000/svg">
<path d="M17.1429 20C18.7187 20 20 18.7187 20 17.1429L20 2.85714C20 1.28125 18.7188 -5.88848e-07 17.1429 -7.26617e-07L7.14286 -1.60084e-06L7.14286 5C7.14286 6.18303 6.18304 7.14286 5 7.14286L6.4717e-07 7.14286L-2.27058e-07 17.1429C-3.64827e-07 18.7187 1.28125 20 2.85714 20L17.1429 20ZM7.7206e-07 5.71428L5 5.71428C5.39286 5.71428 5.71429 5.39286 5.71429 5L5.71429 -1.72573e-06L7.7206e-07 5.71428Z" fill="#E2E7E9" fill-opacity="0.5"/>
</svg>
