<svg width="18" height="18" viewBox="0 0 18 18" fill="none" xmlns="http://www.w3.org/2000/svg">
<path d="M2.37981 18H0V15.6202L13.4195 2.16736L15.8326 4.58091L2.37981 18Z" fill="#E2E7E9" fill-opacity="0.5"/>
<path d="M16.3436 4.06731L13.9327 1.65635L15.3026 0.329715C15.5142 0.116831 15.8387 3.82637e-06 16.1394 3.82637e-06C16.2875 -0.000382936 16.4341 0.0285538 16.5709 0.085144C16.7077 0.141734 16.8319 0.224857 16.9364 0.329715L17.672 1.06529C17.7764 1.16967 17.8592 1.29368 17.9155 1.43017C17.9717 1.56666 18.0005 1.71294 18 1.86058C18 2.16346 17.8827 2.48582 17.6703 2.69827L16.3436 4.06731Z" fill="#E2E7E9" fill-opacity="0.5"/>
</svg>
