<svg width="32" height="32" viewBox="0 0 32 32" fill="none" xmlns="http://www.w3.org/2000/svg">
<path d="M25.6762 14.4552L26.3834 13.7483L18.2542 5.6213L3.66667 20.2048C3.01583 20.8554 2.54022 21.6625 2.27738 22.5446L0.0620281 30.0773C-0.0944232 30.6028 0.0495119 31.1721 0.443769 31.56C0.838027 31.9479 1.40125 32.0918 1.92693 31.9416L9.45536 29.7269C10.3378 29.4641 11.145 28.9887 11.7959 28.338L24.2619 15.8754L25.6762 14.4552ZM10.0123 24.9909L9.44285 26.411C9.19253 26.605 8.91091 26.7489 8.61053 26.8427L3.71673 28.2817L5.15608 23.3955C5.2437 23.0889 5.39389 22.8074 5.58789 22.5634L7.00847 21.9941V23.9961C7.00847 24.5467 7.45905 24.9971 8.00975 24.9971H10.0123V24.9909ZM22.6974 1.17306L21.7962 2.08023L20.3819 3.49415L19.6685 4.20112L27.7977 12.3281L30.8266 9.30002C32.3911 7.73594 32.3911 5.20213 30.8266 3.63805L28.3672 1.17306C26.8027 -0.39102 24.2682 -0.39102 22.7037 1.17306H22.6974ZM19.7311 11.6837L10.7195 20.6928C10.3315 21.0807 9.69317 21.0807 9.30517 20.6928C8.91717 20.3049 8.91717 19.6667 9.30517 19.2788L18.3168 10.2697C18.7048 9.88186 19.3431 9.88186 19.7311 10.2697C20.1191 10.6576 20.1191 11.2958 19.7311 11.6837Z" fill="#E2E7E9" fill-opacity="0.5"/>
</svg>
