<svg width="32" height="32" viewBox="0 0 32 32" fill="none" xmlns="http://www.w3.org/2000/svg">
<path d="M21.8952 2.32713C20.3983 0.826424 18.3076 0 16 0C13.6801 0 11.5824 0.821424 10.0925 2.31284C8.58636 3.82069 7.85253 5.86997 8.02484 8.08281C8.36636 12.4485 11.944 15.9999 16 15.9999C20.056 15.9999 23.6275 12.4492 23.9744 8.08424C24.149 5.89139 23.4106 3.84641 21.8952 2.32713ZM29.5381 31.9998H2.46191C2.10751 32.0041 1.75654 31.935 1.43453 31.7974C1.11252 31.6599 0.827573 31.4575 0.600423 31.2048C0.100437 30.6498 -0.101096 29.892 0.0481309 29.1255C0.697344 25.7813 2.72344 22.972 5.90797 20.9999C8.73712 19.2492 12.3209 18.2856 16 18.2856C19.6791 18.2856 23.2629 19.2499 26.092 20.9999C29.2766 22.9713 31.3027 25.7806 31.9519 29.1248C32.1011 29.8913 31.8996 30.6491 31.3996 31.2041C31.1725 31.4569 30.8876 31.6595 30.5656 31.7971C30.2436 31.9348 29.8926 32.004 29.5381 31.9998Z" fill="#E2E7E9" fill-opacity="0.5"/>
</svg>
