<svg width="32" height="32" viewBox="0 0 32 32" fill="none" xmlns="http://www.w3.org/2000/svg">
<path d="M15.6364 10.4348C14.5318 10.4348 13.452 10.7612 12.5336 11.3727C11.6151 11.9842 10.8993 12.8534 10.4766 13.8703C10.0539 14.8872 9.94328 16.0062 10.1588 17.0857C10.3743 18.1653 10.9062 19.1569 11.6872 19.9352C12.4683 20.7135 13.4634 21.2435 14.5468 21.4583C15.6302 21.673 16.7531 21.5628 17.7736 21.1416C18.7941 20.7204 19.6664 20.0071 20.28 19.0919C20.8937 18.1767 21.2213 17.1007 21.2213 16C21.2168 14.5254 20.627 13.1124 19.5806 12.0697C18.5342 11.0269 17.1162 10.4392 15.6364 10.4348ZM27.6942 16C27.6913 16.52 27.653 17.0392 27.5797 17.5541L30.9788 20.2059C31.1268 20.3277 31.2266 20.498 31.2602 20.6864C31.2938 20.8747 31.2592 21.0689 31.1624 21.2341L27.9469 26.7659C27.8491 26.9297 27.6966 27.0538 27.516 27.1166C27.3355 27.1793 27.1385 27.1766 26.9597 27.1089L22.9631 25.5089C22.1308 26.1475 21.2201 26.6774 20.253 27.0859L19.6554 31.3141C19.622 31.5035 19.5235 31.6754 19.377 31.8005C19.2304 31.9256 19.0448 31.9961 18.8519 32H12.4209C12.2314 31.9963 12.0488 31.9288 11.9029 31.8084C11.757 31.688 11.6563 31.5218 11.6173 31.337L11.0197 27.1089C10.05 26.7051 9.13858 26.1743 8.30967 25.5304L4.31298 27.1304C4.13432 27.1982 3.93741 27.201 3.75687 27.1384C3.57632 27.0758 3.42371 26.9518 3.32585 26.7882L0.110343 21.257C0.013555 21.0918 -0.0211197 20.8977 0.0125151 20.7093C0.0461499 20.521 0.145902 20.3507 0.293946 20.2289L3.69306 17.577C3.62056 17.0544 3.58231 16.5276 3.57857 16C3.58147 15.48 3.61972 14.9608 3.69306 14.4459L0.293946 11.7941C0.145902 11.6723 0.0461499 11.502 0.0125151 11.3136C-0.0211197 11.1253 0.013555 10.9311 0.110343 10.7659L3.32585 5.23409C3.4236 5.07033 3.57617 4.94616 3.75672 4.88343C3.93728 4.8207 4.13425 4.82343 4.31298 4.89113L8.30967 6.49113C9.14191 5.85253 10.0526 5.32255 11.0197 4.91409L11.6173 0.685913C11.6508 0.496521 11.7492 0.324581 11.8957 0.199474C12.0423 0.0743677 12.2279 0.00385999 12.4209 0H18.8519C19.0413 0.00367411 19.2239 0.0712287 19.3698 0.191636C19.5158 0.312043 19.6164 0.478191 19.6554 0.662956L20.253 4.89113C21.224 5.29459 22.1366 5.82542 22.9665 6.46956L26.9597 4.86956C27.1384 4.8018 27.3353 4.79897 27.5159 4.86157C27.6964 4.92417 27.849 5.04819 27.9469 5.21183L31.1624 10.7437C31.2592 10.9089 31.2938 11.103 31.2602 11.2914C31.2266 11.4797 31.1268 11.65 30.9788 11.7718L27.5797 14.4237C27.6521 14.9461 27.6904 15.4726 27.6942 16Z" fill="#E2E7E9" fill-opacity="0.5"/>
</svg>
