<svg width="32" height="24" viewBox="0 0 32 24" fill="none" xmlns="http://www.w3.org/2000/svg">
<path d="M21.3331 11.5745C19.9625 11.5745 18.6372 10.9707 17.5998 9.87511C16.5912 8.80645 15.9752 7.38135 15.8665 5.86351C15.7505 4.24441 16.2512 2.75551 17.2758 1.6704C18.3005 0.585299 19.7332 0 21.3331 0C22.9218 0 24.3585 0.595821 25.3798 1.6783C26.4111 2.77129 26.9131 4.25756 26.7971 5.86286C26.6858 7.38266 26.0705 8.80711 25.0638 9.87446C24.0291 10.9707 22.7045 11.5745 21.3331 11.5745ZM30.1218 23.1489H12.5452C12.2626 23.1504 11.9834 23.0879 11.7292 22.9663C11.4749 22.8446 11.2523 22.667 11.0785 22.4472C10.8942 22.2089 10.7669 21.9325 10.7062 21.6388C10.6455 21.3451 10.6529 21.0416 10.7279 20.7512C11.2892 18.5277 12.6799 16.6837 14.7492 15.419C16.5858 14.2971 18.9238 13.6789 21.3331 13.6789C23.7898 13.6789 26.0665 14.2708 27.9138 15.3921C29.9878 16.6501 31.3804 18.5047 31.9391 20.7551C32.0132 21.0458 32.0198 21.3493 31.9584 21.6428C31.8969 21.9364 31.7691 22.2125 31.5844 22.4505C31.4108 22.6693 31.1888 22.846 30.9352 22.9671C30.6817 23.0881 30.4034 23.1503 30.1218 23.1489ZM8.73321 11.8375C6.38722 11.8375 4.32457 9.68571 4.13324 7.04135C4.03857 5.68661 4.46657 4.43381 5.33323 3.51508C6.19056 2.60557 7.39988 2.10445 8.73321 2.10445C10.0665 2.10445 11.2665 2.6082 12.1285 3.52298C13.0019 4.44893 13.4285 5.6991 13.3285 7.04266C13.1372 9.68637 11.0752 11.8375 8.73321 11.8375ZM13.1105 13.9058C11.9379 13.3402 10.4159 13.0574 8.73388 13.0574C6.76989 13.0574 4.86257 13.5625 3.36257 14.4792C1.66192 15.5203 0.517921 17.0362 0.0559239 18.8664C-0.0116857 19.1296 -0.0180804 19.4045 0.0372182 19.6706C0.0925168 19.9366 0.208077 20.1868 0.375255 20.4026C0.533886 20.6035 0.73711 20.7658 0.969297 20.8771C1.20148 20.9884 1.45645 21.0456 1.71458 21.0445H9.11454C9.23944 21.0444 9.36037 21.0012 9.45625 20.9222C9.55213 20.8433 9.61688 20.7336 9.63921 20.6124C9.64654 20.571 9.65587 20.5295 9.66654 20.4888C10.2319 18.2488 11.5565 16.3562 13.5139 14.9764C13.5858 14.9252 13.6437 14.8571 13.6823 14.7783C13.7209 14.6994 13.7389 14.6124 13.7347 14.5249C13.7306 14.4375 13.7043 14.3524 13.6584 14.2775C13.6125 14.2026 13.5484 14.1401 13.4719 14.0958C13.3672 14.0353 13.2472 13.9716 13.1105 13.9058Z" fill="url(#paint0_linear_16_1047)"/>
<defs>
<linearGradient id="paint0_linear_16_1047" x1="0" y1="11.5745" x2="32" y2="11.5745" gradientUnits="userSpaceOnUse">
<stop stop-color="#63C7BC"/>
<stop offset="1" stop-color="#B1EF8E"/>
</linearGradient>
</defs>
</svg>
