<svg width="28" height="32" viewBox="0 0 28 32" fill="none" xmlns="http://www.w3.org/2000/svg">
<path d="M5.95489 0C2.66729 0 0 2.6875 0 6V26C0 29.3125 2.66729 32 5.95489 32H25.8045C26.9024 32 27.7895 31.1063 27.7895 30C27.7895 28.8938 26.9024 28 25.8045 28V24C26.9024 24 27.7895 23.1063 27.7895 22V2C27.7895 0.89375 26.9024 0 25.8045 0H5.95489ZM5.95489 24H21.8346V28H5.95489C4.85696 28 3.96992 27.1063 3.96992 26C3.96992 24.8938 4.85696 24 5.95489 24ZM7.93985 9C7.93985 8.45 8.38647 8 8.93233 8H20.8421C21.388 8 21.8346 8.45 21.8346 9C21.8346 9.55 21.388 10 20.8421 10H8.93233C8.38647 10 7.93985 9.55 7.93985 9ZM8.93233 12H20.8421C21.388 12 21.8346 12.45 21.8346 13C21.8346 13.55 21.388 14 20.8421 14H8.93233C8.38647 14 7.93985 13.55 7.93985 13C7.93985 12.45 8.38647 12 8.93233 12Z" fill="#E2E7E9" fill-opacity="0.5"/>
</svg>
