<svg width="50" height="50" viewBox="0 0 50 50" fill="none" xmlns="http://www.w3.org/2000/svg">
<path d="M43.75 0H6.25C2.8125 0 0 2.8125 0 6.25V14.2875C0 14.2875 8.02917 18.9542 8.5375 19.2458C9.18333 19.6208 9.98333 19.6146 10.6292 19.2458C11.1708 18.9396 27.3375 9.64583 27.5792 9.50625C28.1604 9.17083 28.7875 9.28333 29.1375 9.48542C29.4792 9.6875 30.4 10.2104 30.8875 10.4854C31.3708 10.7646 31.3479 11.5313 30.9146 11.7812L10.6812 23.4271C9.96042 23.8437 9.24375 23.8521 8.49792 23.4312C7.24583 22.7229 2.07917 19.7146 0 18.5042V22.7125L8.5375 27.6708C9.18333 28.0458 9.98333 28.0396 10.6292 27.6708C11.1708 27.3646 27.3375 18.0687 27.5792 17.9292C28.1604 17.5958 28.7875 17.7083 29.1375 17.9125C29.4792 18.1125 30.4 18.6354 30.8875 18.9125C31.3708 19.1896 31.3479 19.9542 30.9146 20.2042C30.4812 20.4562 11.5646 31.3417 10.6812 31.85C9.96042 32.2667 9.24375 32.2771 8.49792 31.8542C7.24583 31.1479 2.07917 28.1375 0 26.9292V31.1375L8.5375 36.0958C9.18333 36.4708 9.98333 36.4646 10.6292 36.0958C11.1708 35.7896 27.3375 26.4937 27.5792 26.3542C28.1604 26.0208 28.7875 26.1333 29.1375 26.3354C29.4792 26.5375 30.4 27.0604 30.8875 27.3354C31.3708 27.6125 31.3479 28.3812 30.9146 28.6312L10.6812 40.2771C9.96042 40.6917 9.24375 40.7021 8.49792 40.2792C7.24583 39.5708 2.07917 36.5625 0 35.3542V43.75C0 47.1875 2.8125 50 6.25 50H43.75C47.1875 50 50 47.1875 50 43.75V6.25C50 2.8125 47.1875 0 43.75 0Z" fill="url(#paint0_linear_280_349)"/>
<defs>
<linearGradient id="paint0_linear_280_349" x1="0" y1="25" x2="50" y2="25" gradientUnits="userSpaceOnUse">
<stop stop-color="#63C7BC"/>
<stop offset="1" stop-color="#B1EF8E"/>
</linearGradient>
</defs>
</svg>
