<svg width="21" height="24" viewBox="0 0 21 24" fill="none" xmlns="http://www.w3.org/2000/svg">
<path d="M20.5473 3.42857H14.5714V0.857143C14.5714 0.629814 14.4811 0.411797 14.3204 0.251051C14.1596 0.0903058 13.9416 0 13.7143 0H6.85714C6.62981 0 6.4118 0.0903058 6.25105 0.251051C6.09031 0.411797 6 0.629814 6 0.857143V3.42857H0.024107L0 5.57143H1.76786L2.84411 22.3929C2.87135 22.8279 3.06326 23.2362 3.38081 23.5347C3.69837 23.8332 4.11772 23.9996 4.55357 24H16.0179C16.4535 23.9999 16.8727 23.8341 17.1904 23.536C17.5081 23.238 17.7005 22.8302 17.7284 22.3955L18.8036 5.57143H20.5714L20.5473 3.42857ZM6 20.5714L5.51786 6.85714H7.28571L7.76786 20.5714H6ZM11.1429 20.5714H9.42857V6.85714H11.1429V20.5714ZM12.4286 3.42857H8.14286V1.92857C8.14286 1.87174 8.16543 1.81723 8.20562 1.77705C8.24581 1.73686 8.30031 1.71429 8.35714 1.71429H12.2143C12.2711 1.71429 12.3256 1.73686 12.3658 1.77705C12.406 1.81723 12.4286 1.87174 12.4286 1.92857V3.42857ZM14.5714 20.5714H12.8036L13.2857 6.85714H15.0536L14.5714 20.5714Z" fill="#E2E7E9" fill-opacity="0.5"/>
</svg>
