<svg width="21" height="25" viewBox="0 0 21 25" fill="none" xmlns="http://www.w3.org/2000/svg">
<path d="M20.5473 4.30979H14.5714V1.80033C14.5714 1.57847 14.4811 1.36571 14.3204 1.20884C14.1596 1.05197 13.9416 0.963837 13.7143 0.963837H6.85714C6.62981 0.963837 6.4118 1.05197 6.25105 1.20884C6.09031 1.36571 6 1.57847 6 1.80033V4.30979H0.024107L0 6.40101H1.76786L2.84411 22.8171C2.87135 23.2416 3.06326 23.6401 3.38081 23.9314C3.69837 24.2228 4.11772 24.3852 4.55357 24.3855H16.0179C16.4535 24.3855 16.8727 24.2236 17.1904 23.9327C17.5081 23.6419 17.7005 23.244 17.7284 22.8197L18.8036 6.40101H20.5714L20.5473 4.30979ZM6 21.0396L5.51786 7.65575H7.28571L7.76786 21.0396H6ZM11.1429 21.0396H9.42857V7.65575H11.1429V21.0396ZM12.4286 4.30979H8.14286V2.84594C8.14286 2.79047 8.16543 2.73728 8.20562 2.69806C8.24581 2.65885 8.30031 2.63681 8.35714 2.63681H12.2143C12.2711 2.63681 12.3256 2.65885 12.3658 2.69806C12.406 2.73728 12.4286 2.79047 12.4286 2.84594V4.30979ZM14.5714 21.0396H12.8036L13.2857 7.65575H15.0536L14.5714 21.0396Z" fill="#E2E7E9" fill-opacity="0.1"/>
</svg>
