<svg width="32" height="25" viewBox="0 0 32 25" fill="none" xmlns="http://www.w3.org/2000/svg">
<path d="M19.05 3.97322L9.305 0.20909C8.47 -0.110166 7.545 -0.0638222 6.75 0.348121L4.455 1.52731C3.9 1.81567 3.86 2.61381 4.38 2.95881L11.725 7.82489L6.8 10.415L3.89 9.08132C3.455 8.8805 2.95 8.89079 2.525 9.11221L0.915 9.94125C0.45 10.1833 0.325 10.8063 0.665 11.2131L4.32 15.6055C4.625 15.9711 5.07 16.1822 5.535 16.1822H12.42C12.67 16.1822 12.915 16.1204 13.135 16.0071L26.78 8.98348C29.105 7.7837 30.905 5.72398 31.82 3.21628C32.295 1.91865 31.36 0.528346 30.01 0.528346H27.14C26.13 0.528346 25.13 0.775512 24.23 1.24925L19.05 3.97322ZM0 22.7733C0 23.6847 0.715 24.4211 1.6 24.4211H30.4C31.285 24.4211 32 23.6847 32 22.7733C32 21.8619 31.285 21.1255 30.4 21.1255H1.6C0.715 21.1255 0 21.8619 0 22.7733Z" fill="url(#paint0_linear_16_1038)"/>
<defs>
<linearGradient id="paint0_linear_16_1038" x1="0" y1="12.2105" x2="32" y2="12.2105" gradientUnits="userSpaceOnUse">
<stop stop-color="#63C7BC"/>
<stop offset="1" stop-color="#B1EF8E"/>
</linearGradient>
</defs>
</svg>
