<svg width="24" height="24" viewBox="0 0 24 24" fill="none" xmlns="http://www.w3.org/2000/svg">
<path d="M24 12C24 18.6274 18.6274 24 12 24C5.37258 24 0 18.6274 0 12C0 5.37258 5.37258 0 12 0C18.6274 0 24 5.37258 24 12Z" fill="#161B1D" fill-opacity="0.75"/>
<path d="M12.75 8.56126V14.2498C12.75 14.6647 12.4148 14.9999 12 14.9999C11.5852 14.9999 11.25 14.6647 11.25 14.2498V8.56126L9.52969 10.2817C9.23672 10.5746 8.76094 10.5746 8.46797 10.2817C8.175 9.98867 8.175 9.51287 8.46797 9.21988L11.468 6.21974C11.7609 5.92675 12.2367 5.92675 12.5297 6.21974L15.5297 9.21988C15.8227 9.51287 15.8227 9.98867 15.5297 10.2817C15.2367 10.5746 14.7609 10.5746 14.468 10.2817L12.75 8.56126ZM7.5 14.2498H10.5C10.5 15.0772 11.1727 15.7499 12 15.7499C12.8273 15.7499 13.5 15.0772 13.5 14.2498H16.5C17.3273 14.2498 18 14.9225 18 15.7499V16.4999C18 17.3273 17.3273 18 16.5 18H7.5C6.67266 18 6 17.3273 6 16.4999V15.7499C6 14.9225 6.67266 14.2498 7.5 14.2498ZM16.125 16.6874C16.2742 16.6874 16.4173 16.6282 16.5227 16.5227C16.6282 16.4172 16.6875 16.2741 16.6875 16.1249C16.6875 15.9757 16.6282 15.8326 16.5227 15.7271C16.4173 15.6216 16.2742 15.5624 16.125 15.5624C15.9758 15.5624 15.8327 15.6216 15.7273 15.7271C15.6218 15.8326 15.5625 15.9757 15.5625 16.1249C15.5625 16.2741 15.6218 16.4172 15.7273 16.5227C15.8327 16.6282 15.9758 16.6874 16.125 16.6874Z" fill="#7ADDAB"/>
</svg>
