<svg width="24" height="24" viewBox="0 0 24 24" fill="none" xmlns="http://www.w3.org/2000/svg">
<path d="M4.93393 11.925C4.93393 13.2589 5.30893 14.5607 6.01607 15.6804L6.18214 15.9482L5.46964 18.5518L8.14286 17.85L8.4 18.0054C9.48214 18.6482 10.725 18.9911 11.9946 18.9911H12C15.8893 18.9911 19.1411 15.825 19.1411 11.9304C19.1411 10.0446 18.3268 8.27143 16.9929 6.9375C15.6536 5.59821 13.8857 4.86429 12 4.86429C8.10536 4.86429 4.93929 8.03036 4.93393 11.925ZM14.7214 15.9643C14.0464 16.0661 13.5214 16.0125 12.1768 15.4339C10.2054 14.5821 8.86607 12.675 8.59286 12.2893C8.57143 12.2571 8.55536 12.2411 8.55 12.2304C8.44286 12.0911 7.68214 11.0786 7.68214 10.0339C7.68214 9.04821 8.16429 8.53929 8.38929 8.30357C8.40536 8.2875 8.41607 8.27679 8.42679 8.26071C8.61964 8.04643 8.85 7.99286 8.99464 7.99286C9.13393 7.99286 9.27857 7.99286 9.40179 7.99821C9.41786 7.99821 9.42857 7.99821 9.44464 7.99821C9.56786 7.99821 9.72321 7.99821 9.87857 8.3625C9.94286 8.51786 10.0393 8.75357 10.1411 8.99464C10.3179 9.42321 10.5 9.86786 10.5321 9.9375C10.5857 10.0446 10.6232 10.1679 10.5482 10.3071C10.3661 10.6714 10.1786 10.8643 10.05 11.0036C9.88393 11.175 9.80893 11.2554 9.92679 11.4643C10.7464 12.8732 11.5661 13.3607 12.8143 13.9875C13.0286 14.0946 13.1518 14.0786 13.275 13.9339C13.3982 13.7946 13.8054 13.3125 13.9446 13.1036C14.0839 12.8893 14.2286 12.9268 14.4214 12.9964C14.6143 13.0661 15.6589 13.5804 15.8732 13.6875C15.9161 13.7089 15.9536 13.725 15.9857 13.7411C16.1357 13.8161 16.2375 13.8643 16.2804 13.9339C16.3286 14.0357 16.3286 14.4643 16.1518 14.9571C15.975 15.4554 15.1286 15.9054 14.7214 15.9643ZM24 3.42857C24 1.5375 22.4625 0 20.5714 0H3.42857C1.5375 0 0 1.5375 0 3.42857V20.5714C0 22.4625 1.5375 24 3.42857 24H20.5714C22.4625 24 24 22.4625 24 20.5714V3.42857ZM7.93393 19.3875L3.42857 20.5714L4.63393 16.1679C3.88929 14.8821 3.49821 13.4196 3.49821 11.9196C3.50357 7.2375 7.3125 3.42857 11.9946 3.42857C14.2661 3.42857 16.3982 4.3125 18.0054 5.91964C19.6071 7.52679 20.5714 9.65893 20.5714 11.9304C20.5714 16.6125 16.6768 20.4214 11.9946 20.4214C10.5696 20.4214 9.17143 20.0625 7.93393 19.3875Z" fill="url(#paint0_linear_15_441)"/>
<defs>
<linearGradient id="paint0_linear_15_441" x1="0" y1="12" x2="24" y2="12" gradientUnits="userSpaceOnUse">
<stop stop-color="#63C7BC"/>
<stop offset="1" stop-color="#B1EF8E"/>
</linearGradient>
</defs>
</svg>
