<svg width="32" height="30" viewBox="0 0 32 30" fill="none" xmlns="http://www.w3.org/2000/svg">
<path d="M8 30C8 30 6 30 6 28C6 26 8 20 16 20C24 20 26 26 26 28C26 30 24 30 24 30H8ZM16 18.1C17.3261 18.1 18.5979 17.5732 19.5355 16.6355C20.4732 15.6978 21 14.4261 21 13.1C21 11.7739 20.4732 10.5021 19.5355 9.56446C18.5979 8.62678 17.3261 8.1 16 8.1C14.6739 8.1 13.4021 8.62678 12.4645 9.56446C11.5268 10.5021 11 11.7739 11 13.1C11 14.4261 11.5268 15.6978 12.4645 16.6355C13.4021 17.5732 14.6739 18.1 16 18.1Z" fill="url(#paint0_linear_16_1031)"/>
<path d="M4 0C2.93913 0 1.92172 0.421427 1.17157 1.17157C0.421427 1.92172 0 2.93913 0 4V23C0 23.7956 0.316071 24.5587 0.87868 25.1213C1.44129 25.6839 2.20435 26 3 26H4.306C4.72418 24.5302 5.45102 23.1666 6.438 22H2V4C2 3.46957 2.21071 2.96086 2.58579 2.58579C2.96086 2.21071 3.46957 2 4 2H28C28.5304 2 29.0391 2.21071 29.4142 2.58579C29.7893 2.96086 30 3.46957 30 4V22H25.562C26.67 23.308 27.342 24.746 27.694 26H29C29.7957 26 30.5587 25.6839 31.1213 25.1213C31.6839 24.5587 32 23.7956 32 23V4C32 2.93913 31.5786 1.92172 30.8284 1.17157C30.0783 0.421427 29.0609 0 28 0H4Z" fill="url(#paint1_linear_16_1031)"/>
<defs>
<linearGradient id="paint0_linear_16_1031" x1="0" y1="15" x2="32" y2="15" gradientUnits="userSpaceOnUse">
<stop stop-color="#63C7BC"/>
<stop offset="1" stop-color="#B1EF8E"/>
</linearGradient>
<linearGradient id="paint1_linear_16_1031" x1="0" y1="15" x2="32" y2="15" gradientUnits="userSpaceOnUse">
<stop stop-color="#63C7BC"/>
<stop offset="1" stop-color="#B1EF8E"/>
</linearGradient>
</defs>
</svg>
